<svg width="1633" height="207" viewBox="0 0 1633 207" fill="none" xmlns="http://www.w3.org/2000/svg">
<path d="M190.36 190.68C185.32 196.467 179.907 200.573 174.12 203C168.333 205.613 161.333 206.92 153.12 206.92C142.293 206.92 133.707 204.68 127.36 200.2C121.2 195.533 117.187 187.693 115.32 176.68L110.28 148.68C107.853 135.053 104.867 125.067 101.32 118.72C97.96 112.187 92.2667 108.92 84.24 108.92H66.04V173.32C66.04 180.413 66.5067 185.547 67.44 188.72C68.56 191.893 70.52 194.04 73.32 195.16C76.12 196.28 80.6933 197.027 87.04 197.4V203C76.96 202.44 62.8667 202.16 44.76 202.16C24.7867 202.16 10.04 202.44 0.520001 203V197.4C6.68 197.027 11.16 196.28 13.96 195.16C16.9467 194.04 18.9067 191.893 19.84 188.72C20.96 185.547 21.52 180.413 21.52 173.32V34.44C21.52 27.3467 20.96 22.2133 19.84 19.04C18.9067 15.8667 16.9467 13.72 13.96 12.6C11.16 11.48 6.68 10.7333 0.520001 10.36V4.76C10.04 5.31999 24.2267 5.59999 43.08 5.59999L74.16 5.31999C77.8933 5.13333 82.1867 5.04 87.04 5.04C112.8 5.04 132.12 9.23999 145 17.64C158.067 26.04 164.6 38.08 164.6 53.76C164.6 67.0133 159.747 78.68 150.04 88.76C140.333 98.84 124.28 105.187 101.88 107.8C118.68 109.293 131.187 112.933 139.4 118.72C147.613 124.507 152.933 133.187 155.36 144.76L161.8 173.6C163.293 181.067 164.973 186.293 166.84 189.28C168.893 192.267 171.693 193.76 175.24 193.76C177.48 193.573 179.347 193.013 180.84 192.08C182.52 191.147 184.387 189.56 186.44 187.32L190.36 190.68ZM83.4 10.36C78.36 10.36 74.6267 11.0133 72.2 12.32C69.96 13.6267 68.3733 15.96 67.44 19.32C66.5067 22.68 66.04 27.72 66.04 34.44V103.32H78.08C93.3867 103.32 103.84 99.3067 109.44 91.28C115.227 83.0667 118.12 71.5867 118.12 56.84C118.12 41.5333 115.413 29.96 110 22.12C104.587 14.28 95.72 10.36 83.4 10.36ZM296.027 0.839983C315.814 0.839983 333.081 4.85332 347.827 12.88C362.761 20.9067 374.334 32.5733 382.547 47.88C390.761 63 394.867 81.1067 394.867 102.2C394.867 122.733 390.667 140.933 382.267 156.8C373.867 172.667 362.107 184.987 346.987 193.76C332.054 202.533 314.974 206.92 295.747 206.92C275.961 206.92 258.601 202.907 243.667 194.88C228.921 186.853 217.441 175.28 209.227 160.16C201.014 144.853 196.907 126.653 196.907 105.56C196.907 85.0267 201.107 66.8267 209.507 50.96C217.907 35.0933 229.574 22.7733 244.507 14C259.627 5.22665 276.801 0.839983 296.027 0.839983ZM294.907 5.87998C284.641 5.87998 275.587 10.08 267.747 18.48C259.907 26.6933 253.841 38.2667 249.547 53.2C245.441 68.1333 243.387 85.2133 243.387 104.44C243.387 123.853 245.721 140.933 250.387 155.68C255.241 170.427 261.681 181.813 269.707 189.84C277.921 197.867 286.974 201.88 296.867 201.88C307.134 201.88 316.187 197.773 324.027 189.56C331.867 181.16 337.841 169.493 341.947 154.56C346.241 139.627 348.387 122.547 348.387 103.32C348.387 83.9067 345.961 66.8267 341.107 52.08C336.441 37.3333 330.001 25.9467 321.787 17.92C313.761 9.89332 304.801 5.87998 294.907 5.87998ZM570.869 179.48C573.296 185.64 576.096 190.12 579.269 192.92C582.442 195.72 585.522 197.213 588.509 197.4V203C577.309 202.44 563.122 202.16 545.949 202.16C526.909 202.16 512.722 202.44 503.389 203V197.4C510.482 197.027 515.522 196.187 518.509 194.88C521.496 193.387 522.989 190.867 522.989 187.32C522.989 183.96 521.869 179.48 519.629 173.88L502.829 127.96H441.789L434.509 147.28C429.282 160.72 426.669 171.08 426.669 178.36C426.669 185.267 428.722 190.12 432.829 192.92C437.122 195.533 443.376 197.027 451.589 197.4V203C438.896 202.44 427.322 202.16 416.869 202.16C408.282 202.16 401.189 202.44 395.589 203V197.4C404.736 195.72 412.762 185.92 419.669 168L483.509 4.19999C485.562 4.38665 488.829 4.47999 493.309 4.47999C497.789 4.47999 500.962 4.38665 502.829 4.19999L570.869 179.48ZM500.869 122.36L473.149 46.76L444.029 122.36H500.869ZM677.118 4.76C713.518 4.76 740.771 13.0667 758.878 29.68C776.985 46.1067 786.038 70.0933 786.038 101.64C786.038 121.987 781.558 139.813 772.598 155.12C763.825 170.24 751.038 182 734.238 190.4C717.625 198.8 697.745 203 674.598 203L657.238 202.72C646.411 202.347 638.571 202.16 633.718 202.16C614.491 202.16 600.118 202.44 590.598 203V197.4C596.758 197.027 601.238 196.28 604.038 195.16C607.025 194.04 608.985 191.893 609.918 188.72C611.038 185.547 611.598 180.413 611.598 173.32V34.44C611.598 27.3467 611.038 22.2133 609.918 19.04C608.985 15.8667 607.025 13.72 604.038 12.6C601.238 11.48 596.758 10.7333 590.598 10.36V4.76C598.438 5.31999 609.731 5.59999 624.478 5.59999H633.158L644.358 5.31999C659.665 4.94666 670.585 4.76 677.118 4.76ZM676.838 9.79998C671.051 9.79998 666.665 10.4533 663.678 11.76C660.878 13.0667 658.918 15.4 657.798 18.76C656.678 22.12 656.118 27.16 656.118 33.88V173.88C656.118 180.6 656.678 185.64 657.798 189C658.918 192.36 660.878 194.693 663.678 196C666.665 197.307 671.145 197.96 677.118 197.96C699.705 197.96 715.758 190.12 725.278 174.44C734.798 158.573 739.558 134.68 739.558 102.76C739.558 70.84 734.611 47.4133 724.718 32.48C715.011 17.36 699.051 9.79998 676.838 9.79998ZM1046.32 10.36C1039.97 10.7333 1035.4 11.48 1032.6 12.6C1029.8 13.72 1027.84 15.8667 1026.72 19.04C1025.79 22.2133 1025.32 27.3467 1025.32 34.44V173.32C1025.32 180.413 1025.79 185.547 1026.72 188.72C1027.84 191.893 1029.8 194.04 1032.6 195.16C1035.59 196.28 1040.16 197.027 1046.32 197.4V203C1036.05 202.44 1021.4 202.16 1002.36 202.16C982.387 202.16 967.64 202.44 958.12 203V197.4C964.84 197.027 969.693 196.28 972.68 195.16C975.853 194.04 978 191.893 979.12 188.72C980.24 185.547 980.8 180.413 980.8 173.32V26.88L913.32 203.28H908.84L833.24 22.96V157.08C833.24 168.093 833.8 176.213 834.92 181.44C836.04 186.48 838.467 190.213 842.2 192.64C845.933 194.88 852 196.467 860.4 197.4V203C853.12 202.44 843.04 202.16 830.16 202.16C819.893 202.16 811.773 202.44 805.8 203V197.4C811.96 196.467 816.44 194.88 819.24 192.64C822.227 190.4 824.187 186.853 825.12 182C826.24 177.147 826.8 169.96 826.8 160.44V34.44C826.8 27.3467 826.24 22.2133 825.12 19.04C824.187 15.8667 822.227 13.72 819.24 12.6C816.44 11.48 811.96 10.7333 805.8 10.36V4.76C811.773 5.31999 819.893 5.59999 830.16 5.59999C847.333 5.59999 862.08 5.31999 874.4 4.76L930.96 141.12L982.48 5.59999H1002.36C1021.4 5.59999 1036.05 5.31999 1046.32 4.76V10.36ZM1226.57 179.48C1229 185.64 1231.8 190.12 1234.97 192.92C1238.15 195.72 1241.23 197.213 1244.21 197.4V203C1233.01 202.44 1218.83 202.16 1201.65 202.16C1182.61 202.16 1168.43 202.44 1159.09 203V197.4C1166.19 197.027 1171.23 196.187 1174.21 194.88C1177.2 193.387 1178.69 190.867 1178.69 187.32C1178.69 183.96 1177.57 179.48 1175.33 173.88L1158.53 127.96H1097.49L1090.21 147.28C1084.99 160.72 1082.37 171.08 1082.37 178.36C1082.37 185.267 1084.43 190.12 1088.53 192.92C1092.83 195.533 1099.08 197.027 1107.29 197.4V203C1094.6 202.44 1083.03 202.16 1072.57 202.16C1063.99 202.16 1056.89 202.44 1051.29 203V197.4C1060.44 195.72 1068.47 185.92 1075.37 168L1139.21 4.19999C1141.27 4.38665 1144.53 4.47999 1149.01 4.47999C1153.49 4.47999 1156.67 4.38665 1158.53 4.19999L1226.57 179.48ZM1156.57 122.36L1128.85 46.76L1099.73 122.36H1156.57ZM1430.82 10.36C1424.66 11.2933 1420.09 12.88 1417.1 15.12C1414.3 17.36 1412.34 20.9067 1411.22 25.76C1410.29 30.6133 1409.82 37.8 1409.82 47.32V203.56L1403.1 203.28L1395.54 203.56L1274.02 49.56V157.08C1274.02 168.093 1274.58 176.213 1275.7 181.44C1276.82 186.48 1279.25 190.213 1282.98 192.64C1286.71 194.88 1292.78 196.467 1301.18 197.4V203C1293.9 202.44 1283.82 202.16 1270.94 202.16C1260.67 202.16 1252.55 202.44 1246.58 203V197.4C1252.74 196.467 1257.22 194.88 1260.02 192.64C1263.01 190.4 1264.97 186.853 1265.9 182C1267.02 177.147 1267.58 169.96 1267.58 160.44V34.44C1267.58 27.3467 1267.02 22.2133 1265.9 19.04C1264.97 15.8667 1263.01 13.72 1260.02 12.6C1257.22 11.48 1252.74 10.7333 1246.58 10.36V4.76C1252.55 5.31999 1260.67 5.59999 1270.94 5.59999C1280.27 5.59999 1288.3 5.31999 1295.02 4.76L1403.38 138.32V50.68C1403.38 39.6667 1402.82 31.64 1401.7 26.6C1400.58 21.3733 1398.15 17.64 1394.42 15.4C1390.69 12.9733 1384.62 11.2933 1376.22 10.36V4.76C1383.5 5.31999 1393.58 5.59999 1406.46 5.59999C1416.91 5.59999 1425.03 5.31999 1430.82 4.76V10.36ZM1632.89 10.36C1626.73 11.2933 1622.16 12.88 1619.17 15.12C1616.37 17.36 1614.41 20.9067 1613.29 25.76C1612.36 30.6133 1611.89 37.8 1611.89 47.32V203.56L1605.17 203.28L1597.61 203.56L1476.09 49.56V157.08C1476.09 168.093 1476.65 176.213 1477.77 181.44C1478.89 186.48 1481.32 190.213 1485.05 192.64C1488.78 194.88 1494.85 196.467 1503.25 197.4V203C1495.97 202.44 1485.89 202.16 1473.01 202.16C1462.74 202.16 1454.62 202.44 1448.65 203V197.4C1454.81 196.467 1459.29 194.88 1462.09 192.64C1465.08 190.4 1467.04 186.853 1467.97 182C1469.09 177.147 1469.65 169.96 1469.65 160.44V34.44C1469.65 27.3467 1469.09 22.2133 1467.97 19.04C1467.04 15.8667 1465.08 13.72 1462.09 12.6C1459.29 11.48 1454.81 10.7333 1448.65 10.36V4.76C1454.62 5.31999 1462.74 5.59999 1473.01 5.59999C1482.34 5.59999 1490.37 5.31999 1497.09 4.76L1605.45 138.32V50.68C1605.45 39.6667 1604.89 31.64 1603.77 26.6C1602.65 21.3733 1600.22 17.64 1596.49 15.4C1592.76 12.9733 1586.69 11.2933 1578.29 10.36V4.76C1585.57 5.31999 1595.65 5.59999 1608.53 5.59999C1618.98 5.59999 1627.1 5.31999 1632.89 4.76V10.36Z" fill="#E8E8E8"/>
</svg>
