<svg id="Layer_5" enable-background="new 0 0 64 64" height="512" viewBox="0 0 64 64" width="512" xmlns="http://www.w3.org/2000/svg"><g><path d="m58 14c-1.654 0-3 1.346-3 3v.39c-3.197 1.694-6.54 3.017-10 3.949v-15.339c0-2.757-2.243-5-5-5h-23v8h-11c-2.757 0-5 2.243-5 5v44c0 2.757 2.243 5 5 5h33v-8h6v-12.339c3.46.932 6.803 2.254 10 3.949v.39c0 1.654 1.346 3 3 3 2.757 0 5-2.243 5-5v-26c0-2.757-2.243-5-5-5zm-39-11h21c1.654 0 3 1.346 3 3s-1.346 3-3 3h-21zm-13 8h34c1.13 0 2.162-.391 3-1.026v11.853c-1.318.295-2.653.53-4 .714v-5.541h-33c-1.654 0-3-1.346-3-3s1.346-3 3-3zm33 28.44v-14.88c.67-.088 1.337-.185 2-.299v15.478c-.663-.114-1.33-.211-2-.299zm-2 21.56h-31c-1.654 0-3-1.346-3-3v-40.002c.836.628 1.875 1.002 3 1.002h31zm6-8h-4v-11.541c1.347.184 2.682.419 4 .714zm0-12.882v-16.236c4.163-.891 8.177-2.317 12-4.243v24.721c-3.823-1.925-7.837-3.351-12-4.242zm18 4.882c0 1.654-1.346 3-3 3-.551 0-1-.449-1-1v-30c0-.551.449-1 1-1 1.654 0 3 1.346 3 3z"/><path d="m5 35h30v-14h-30zm2-12h26v10h-26z"/><path d="m5 37h2v2h-2z"/><path d="m9 37h14v2h-14z"/><path d="m5 41h18v2h-18z"/><path d="m5 45h18v2h-18z"/><path d="m32 53c-1.654 0-3 1.346-3 3s1.346 3 3 3 3-1.346 3-3-1.346-3-3-3zm0 4c-.551 0-1-.449-1-1s.449-1 1-1 1 .449 1 1-.449 1-1 1z"/><path d="m24 53c-1.654 0-3 1.346-3 3s1.346 3 3 3 3-1.346 3-3-1.346-3-3-3zm0 4c-.551 0-1-.449-1-1s.449-1 1-1 1 .449 1 1-.449 1-1 1z"/></g></svg>